<?xml version="1.0" standalone="no"?>
<!DOCTYPE svg PUBLIC "-//W3C//DTD SVG 20010904//EN"
 "http://www.w3.org/TR/2001/REC-SVG-20010904/DTD/svg10.dtd">
<svg version="1.0" xmlns="http://www.w3.org/2000/svg"
 width="512.000000pt" height="512.000000pt" viewBox="0 0 512.000000 512.000000"
 preserveAspectRatio="xMidYMid meet">

<g transform="translate(0.000000,512.000000) scale(0.100000,-0.100000)"
fill="#000000" stroke="none">
<path d="M2703 4690 c-345 -31 -602 -125 -898 -329 -71 -49 -229 -156 -350
-238 -383 -258 -630 -454 -709 -561 -89 -121 -153 -304 -163 -462 -6 -106 14
-212 67 -341 58 -142 177 -262 347 -348 292 -147 527 -98 1073 227 134 79 166
102 169 122 4 32 -27 90 -49 90 -10 0 -60 -20 -113 -45 -117 -56 -217 -82
-368 -97 -150 -14 -234 -2 -339 49 -136 66 -234 194 -261 338 -16 84 -5 253
21 343 28 97 74 172 152 253 185 189 479 351 758 418 315 75 731 88 996 30
158 -34 315 -95 313 -122 0 -6 -84 -70 -186 -142 -209 -147 -368 -294 -514
-477 -119 -150 -267 -416 -469 -843 -57 -121 -260 -574 -260 -581 0 -6 -21
-51 -181 -391 -261 -558 -390 -749 -602 -893 -100 -67 -208 -75 -343 -24 -80
30 -88 30 -102 -1 -20 -43 -15 -82 14 -108 30 -28 201 -88 320 -113 75 -16 85
-16 164 0 114 24 261 71 340 111 142 72 362 231 485 351 82 80 123 132 189
243 112 185 204 381 312 666 36 94 76 201 90 238 15 38 31 66 38 64 6 -2 25
-80 43 -173 57 -301 89 -417 180 -639 58 -143 187 -399 258 -515 114 -184 288
-326 415 -338 92 -9 257 36 408 111 107 53 378 213 403 238 19 19 16 42 -11
102 -17 36 -40 35 -133 -8 -101 -47 -188 -68 -238 -60 -71 12 -180 74 -246
140 -131 131 -263 376 -368 685 -82 240 -138 412 -164 508 -24 89 -19 110 44
155 46 32 389 239 552 332 147 84 320 203 388 266 79 74 130 150 171 254 48
121 61 213 45 338 -31 256 -105 438 -253 627 -208 266 -464 423 -858 526 -82
22 -122 26 -290 29 -107 2 -236 0 -287 -5z m1004 -1078 c101 -180 113 -313 45
-516 -39 -116 -83 -187 -168 -272 -132 -131 -341 -211 -534 -202 -116 6 -210
31 -210 57 0 49 212 467 299 590 148 208 244 320 361 421 l83 71 44 -43 c25
-24 60 -71 80 -106z"/>
<path d="M4372 657 c-12 -13 -22 -32 -22 -43 0 -14 5 -11 16 12 8 17 25 36 37
42 15 7 17 11 6 11 -8 1 -25 -9 -37 -22z"/>
<path d="M4491 651 c76 -76 -20 -187 -104 -121 -14 11 -28 30 -30 43 l-4 22
-2 -23 c0 -13 10 -33 25 -47 59 -55 154 -15 154 65 0 39 -31 90 -55 90 -8 0
-1 -12 16 -29z"/>
<path d="M4407 643 c-4 -3 -6 -29 -6 -57 1 -28 3 -42 6 -31 8 34 21 40 40 19
10 -11 14 -14 8 -6 -6 10 -4 17 8 23 21 12 22 33 2 49 -9 8 -15 8 -15 2 0 -6
5 -12 12 -14 20 -7 -2 -28 -29 -28 -22 0 -24 3 -19 25 6 25 5 30 -7 18z"/>
</g>
</svg>
